<?xml version="1.0" encoding="UTF-8"?>
<svg version="1.1" xmlns="http://www.w3.org/2000/svg" width="1254" height="1254">
<path d="M0 0 C413.82 0 827.64 0 1254 0 C1254 413.82 1254 827.64 1254 1254 C840.18 1254 426.36 1254 0 1254 C0 840.18 0 426.36 0 0 Z " fill="#000000" transform="translate(0,0)"/>
<path d="M0 0 C1.62038651 -0.00133675 3.24077273 -0.003096 4.86115837 -0.00524139 C9.28389067 -0.00975774 13.70660008 -0.00792946 18.12933278 -0.00482988 C21.89415037 -0.00292589 25.65896316 -0.00453458 29.42378062 -0.00616682 C39.55101442 -0.01053268 49.67823415 -0.0076049 59.80546635 -0.00117052 C67.18718539 0.00348172 74.56890221 0.00587468 81.95062256 0.00708008 C155.68001937 0.02144995 229.40256203 0.39236947 303.12817383 1.12939453 C300.12723034 4.78718224 297.41079684 7.93458761 293.62817383 10.81689453 C289.5663877 13.97941449 285.60635846 17.22735181 281.69067383 20.56689453 C276.82308863 24.70959576 271.90267973 28.77866848 266.94458008 32.81298828 C263.79032096 35.40726797 260.67617795 38.04549594 257.56567383 40.69189453 C253.03472284 44.54442853 248.48027515 48.34941894 243.75062943 51.95840263 C241.07074687 54.07495167 241.07074687 54.07495167 238.81513596 56.66050911 C231.77202938 63.86309334 225.94441043 65.22236215 215.99764204 65.39290929 C212.84378199 65.3926127 209.69273755 65.34316961 206.53930664 65.29296875 C204.25810243 65.29346271 201.9768955 65.29842028 199.69570923 65.30747986 C194.80076586 65.31737838 189.90734324 65.29590541 185.01261139 65.24962997 C177.26110607 65.17649845 169.51051771 65.17364061 161.75872803 65.17971802 C150.88098257 65.18085578 140.00380417 65.1500934 129.1262207 65.09130859 C117.96803386 65.03115142 106.80992198 64.98045037 95.65161133 64.94970703 C94.9648535 64.94780518 94.27809566 64.94590333 93.57052699 64.94394384 C86.05556203 64.9236235 78.54060448 64.90852447 71.02561569 64.90091133 C70.36301585 64.9002365 69.700416 64.89956167 69.01773737 64.89886639 C65.71157749 64.89563076 62.40541797 64.89291727 59.09925723 64.89071095 C51.40625006 64.88358374 43.71381304 64.85280631 36.02097368 64.80209041 C31.21942838 64.77382152 26.41793102 64.76182328 21.61631393 64.75349617 C19.40410993 64.74609837 17.19191553 64.73180542 14.97980881 64.70977974 C-6.19742664 64.50473913 -24.76986166 67.05639839 -40.87182617 82.12939453 C-51.93484248 94.75287841 -54.95663365 107.47181396 -54.05200195 123.9140625 C-53.20538951 134.32349519 -47.78664248 144.34526627 -39.87182617 151.12939453 C-39.32139648 151.60892578 -38.7709668 152.08845703 -38.20385742 152.58251953 C-28.89613659 160.18222561 -18.43234602 163.26271783 -6.59570312 163.30297852 C-5.7701807 163.30971651 -4.94465828 163.31645451 -4.09412003 163.32339668 C-2.29634408 163.33752243 -0.49855 163.34946882 1.29925346 163.35949898 C4.18946598 163.37576732 7.07958135 163.39789737 9.96974182 163.4216156 C14.10371798 163.45527447 18.23770196 163.48697734 22.3717041 163.51727295 C52.37917301 163.74259147 82.38512937 164.00553894 112.37817383 165.00439453 C113.48824799 165.03773895 114.59832214 165.07108337 115.74203491 165.10543823 C165.88740889 166.64929443 207.81892846 175.95425455 243.31567383 213.37939453 C258.98568496 231.72719238 269.10915194 256.06525032 269.36645508 280.23876953 C269.37633957 280.99898407 269.38622406 281.75919861 269.39640808 282.54244995 C269.76122998 317.85387932 262.57869126 347.41027239 238.12817383 374.12939453 C237.10916992 375.25474609 237.10916992 375.25474609 236.06958008 376.40283203 C225.03277953 388.01327086 209.67132654 398.58781842 194.12817383 403.12939453 C190.70293702 401.95396832 189.44444747 400.50108612 187.86645508 397.30517578 C187.47474121 396.53189941 187.08302734 395.75862305 186.67944336 394.96191406 C186.27064941 394.13030762 185.86185547 393.29870117 185.44067383 392.44189453 C184.55217893 390.69405183 183.66020732 388.94797243 182.76489258 387.20361328 C182.32064941 386.33784668 181.87640625 385.47208008 181.41870117 384.58007812 C179.65258109 381.22625417 177.73516008 377.98406331 175.75317383 374.75439453 C171.92930427 368.49540659 168.22197696 362.1753552 164.56567383 355.81689453 C164.0282959 354.89021973 163.49091797 353.96354492 162.93725586 353.00878906 C162.44209473 352.14495605 161.94693359 351.28112305 161.43676758 350.39111328 C160.99131592 349.61727295 160.54586426 348.84343262 160.08691406 348.04614258 C159.12817383 346.12939453 159.12817383 346.12939453 159.12817383 344.12939453 C159.96219727 343.83806641 160.7962207 343.54673828 161.65551758 343.24658203 C168.82586383 340.63470333 175.14514862 337.90211311 181.12817383 333.12939453 C181.80364258 332.59056641 182.47911133 332.05173828 183.17504883 331.49658203 C187.67457756 327.46793421 190.6424008 322.94612216 193.50317383 317.69189453 C193.83712158 317.0835376 194.17106934 316.47518066 194.51513672 315.84838867 C200.95815676 303.35519546 201.30154841 286.37658081 197.56567383 273.00439453 C191.95234218 257.83269744 181.50827933 248.08504516 167.12817383 241.12939453 C154.04291211 236.05961194 140.52520312 236.465566 126.69067383 236.37939453 C124.39833413 236.35118012 122.10601493 236.32124525 119.8137207 236.28955078 C114.25195226 236.21634294 108.69030765 236.16432159 103.12817383 236.12939453 C104.50938919 233.28687803 105.9430704 230.94775361 107.96411133 228.51220703 C108.52767334 227.83005127 109.09123535 227.14789551 109.671875 226.44506836 C110.27620361 225.722146 110.88053223 224.99922363 111.50317383 224.25439453 C112.12877197 223.49989014 112.75437012 222.74538574 113.39892578 221.96801758 C117.80279111 216.67211724 122.28216147 211.44476549 126.79101562 206.23828125 C130.73937234 201.65109373 134.46723184 196.91350375 138.17114258 192.12817383 C142.24656855 186.89719727 146.60291822 181.97868079 151.12817383 177.12939453 C148.80024289 178.68134849 146.88531133 180.15961787 144.81567383 182.00439453 C141.09541713 185.2901687 137.33830604 188.5291577 133.56567383 191.75439453 C123.39988638 200.45670546 113.24141303 209.16387337 103.32348633 218.14892578 C100.64720381 220.56329453 97.95386442 222.951899 95.18450928 225.25918579 C93.09124852 227.05476299 93.09124852 227.05476299 91.53570557 229.18515015 C88.09930031 233.20306238 84.91496799 235.25673434 79.66296387 235.8447876 C73.93838008 236.19519033 68.21852079 236.08265592 62.48754883 235.98095703 C60.35680365 235.97109416 58.22604105 235.96450622 56.09527588 235.96102905 C51.6364369 235.94578267 47.1788897 235.90478619 42.72045898 235.84277344 C37.03727503 235.76381918 31.35493061 235.72757836 25.67126083 235.70815468 C20.21407916 235.68808693 14.75709549 235.64844084 9.30004883 235.60595703 C8.27425468 235.59916553 7.24846054 235.59237404 6.19158173 235.58537674 C-7.19607243 235.47857907 -19.98139219 235.11546389 -32.87182617 231.12939453 C-34.57725586 230.77361328 -34.57725586 230.77361328 -36.31713867 230.41064453 C-53.05086553 226.85783628 -68.92614959 219.36774275 -81.87182617 208.12939453 C-82.36972656 207.7054541 -82.86762695 207.28151367 -83.38061523 206.84472656 C-105.70559931 187.73794688 -120.29571703 161.37477008 -123.87182617 132.12939453 C-126.00882666 99.84742657 -119.54529698 68.10818769 -97.87182617 43.12939453 C-97.20795898 42.33404297 -96.5440918 41.53869141 -95.86010742 40.71923828 C-86.6582756 30.03057546 -75.97233867 22.16230985 -63.87182617 15.12939453 C-63.06100586 14.61248047 -62.25018555 14.09556641 -61.41479492 13.56298828 C-58.40483606 11.86612975 -55.38579782 10.7609047 -52.12182617 9.62939453 C-50.26170898 8.98357422 -50.26170898 8.98357422 -48.36401367 8.32470703 C-47.2115918 7.93025391 -46.05916992 7.53580078 -44.87182617 7.12939453 C-44.0494043 6.83806641 -43.22698242 6.54673828 -42.37963867 6.24658203 C-28.21187905 1.31640927 -14.89129221 -0.02106396 0 0 Z " fill="#FCFBFC" transform="translate(552.871826171875,311.87060546875)"/>
<path d="M0 0 C1.34044876 0.00273422 1.34044876 0.00273422 2.70797729 0.00552368 C25.84648383 0.0845562 48.15432993 2.4669218 70.71972656 7.72900391 C72.88920774 8.22929916 75.06076108 8.69243753 77.2421875 9.13671875 C125.89708947 19.86172402 172.09877976 47.50561672 208.5 80.8125 C209.0252124 81.29283691 209.5504248 81.77317383 210.09155273 82.26806641 C213.1137597 85.09024884 215.69984971 88.06537204 218.25 91.3125 C213.03991303 91.53705617 207.83271168 91.69923051 202.61889648 91.80688477 C200.85049314 91.85180733 199.08241759 91.91297359 197.31518555 91.99145508 C180.76328884 92.70744043 180.76328884 92.70744043 174.1328125 87.203125 C172.49233509 85.58587165 170.86401044 83.95616811 169.25 82.3125 C166.07499406 79.89772015 162.76326344 77.70135105 159.4375 75.5 C158.54514648 74.90815918 157.65279297 74.31631836 156.73339844 73.70654297 C146.9024412 67.28916017 136.68471245 61.67845826 126.25 56.3125 C125.53489258 55.93931641 124.81978516 55.56613281 124.08300781 55.18164062 C103.28040758 44.42202304 79.78761633 36.33324177 56.75 32.1875 C55.85273193 32.02209717 54.95546387 31.85669434 54.03100586 31.6862793 C36.8874315 28.5699646 19.93897009 27.07761132 2.5 27.0625 C1.787229 27.06182526 1.07445801 27.06115051 0.34008789 27.06045532 C-67.61243747 27.16142911 -134.27752873 53.48061281 -184.41796875 99.19921875 C-186.50034736 101.08626537 -188.61503064 102.92308233 -190.75 104.75 C-199.29985389 112.23327252 -206.68737951 120.43541766 -213.75 129.3125 C-214.68402785 130.43540236 -215.62033287 131.55641346 -216.55859375 132.67578125 C-235.89625256 155.94835485 -253.07620459 185.24356403 -261.75 214.3125 C-262.23582925 215.67181501 -262.73487803 217.02651317 -263.25 218.375 C-263.48847656 219.00664062 -263.72695313 219.63828125 -263.97265625 220.2890625 C-264.5324694 221.74626456 -265.10425806 223.19888627 -265.68359375 224.6484375 C-270.96127652 238.32523409 -273.43868195 252.88830321 -275.75 267.3125 C-275.87899689 268.10985062 -276.00799377 268.90720123 -276.14089966 269.72871399 C-278.35756402 283.71517164 -279.24637932 297.3485098 -279.125 311.5 C-279.12034729 312.4759613 -279.11569458 313.45192261 -279.11090088 314.4574585 C-278.86404982 358.8300662 -270.0503893 405.34904168 -248.86328125 444.828125 C-247.55370111 447.75055648 -247.72823338 448.36929804 -248.75 451.3125 C-249.59287246 452.83523009 -250.49488923 454.32597472 -251.4375 455.7890625 C-251.97117187 456.624375 -252.50484375 457.4596875 -253.0546875 458.3203125 C-253.61414063 459.18398438 -254.17359375 460.04765625 -254.75 460.9375 C-255.85484873 462.65841646 -256.95904763 464.37975035 -258.0625 466.1015625 C-258.79919922 467.24165771 -258.79919922 467.24165771 -259.55078125 468.40478516 C-260.78038516 470.29210979 -260.78038516 470.29210979 -261.75 472.3125 C-262.41 472.3125 -263.07 472.3125 -263.75 472.3125 C-265.6576977 468.54731734 -267.55964843 464.77929871 -269.45678711 461.00878906 C-270.10014986 459.73199348 -270.74495825 458.45592509 -271.39135742 457.18066406 C-291.20016835 418.08635191 -305.8650274 370.88891765 -305.91796875 326.72265625 C-305.92129715 325.73808945 -305.92462555 324.75352264 -305.92805481 323.73912048 C-305.93308821 321.66926537 -305.93546425 319.59940224 -305.93530273 317.52954102 C-305.93749137 314.38739515 -305.95569152 311.24559968 -305.97460938 308.10351562 C-305.97754375 306.08073035 -305.97952825 304.05794343 -305.98046875 302.03515625 C-305.98765427 301.10880875 -305.99483978 300.18246124 -306.00224304 299.2280426 C-305.9835584 293.8160099 -305.43034729 288.84187367 -304.21716309 283.56401062 C-303.59121532 280.54723108 -303.41085067 277.56081725 -303.21972656 274.49145508 C-301.84492597 253.2524938 -295.93814626 232.2632733 -288.75 212.3125 C-288.03677924 210.1057403 -287.32794998 207.89755284 -286.625 205.6875 C-285.29662682 201.68584471 -283.73076616 198.00937404 -281.7409668 194.29614258 C-280.7960081 192.40459554 -280.06266137 190.54283226 -279.359375 188.55078125 C-277.85425075 184.46846674 -276.03900952 180.6223751 -274.0625 176.75 C-273.71219727 176.05946533 -273.36189453 175.36893066 -273.00097656 174.6574707 C-272.27428039 173.23058944 -271.54495222 171.80504555 -270.81298828 170.38085938 C-270.13602316 169.0636227 -269.4621751 167.74477602 -268.79248047 166.42382812 C-256.831399 142.86930839 -241.65500997 121.1622553 -223.87109375 101.65234375 C-221.94213665 99.52445185 -220.05963647 97.36529141 -218.1875 95.1875 C-212.20632007 88.33808428 -205.65867792 82.20900365 -198.75 76.3125 C-197.83863281 75.51199219 -196.92726563 74.71148437 -195.98828125 73.88671875 C-151.05294134 34.70842545 -94.63751305 10.23163612 -35.75 2.3125 C-34.56019531 2.13517334 -33.37039063 1.95784668 -32.14453125 1.77514648 C-21.40673477 0.26564769 -10.83467039 -0.04604915 0 0 Z " fill="#70B130" transform="translate(622.75,197.6875)"/>
<path d="M0 0 C2.71656346 2.42339826 4.23567083 5.0012576 5.93359375 8.20703125 C6.49369141 9.25697266 7.05378906 10.30691406 7.63085938 11.38867188 C8.22705078 12.51853516 8.82324219 13.64839844 9.4375 14.8125 C10.38507608 16.59337038 11.33458905 18.37319996 12.28408813 20.15304565 C12.92745484 21.35950875 13.5701715 22.56631871 14.21224976 23.77346802 C17.10172209 29.2043024 20.04395521 34.60520574 23 40 C27.36581149 47.98267624 31.69182113 55.98608201 36 64 C44.82329866 80.40585848 53.74987156 96.75302416 62.75 113.0625 C63.25486435 113.97739197 63.25486435 113.97739197 63.76992798 114.9107666 C67.1901873 121.10785298 70.61318437 127.30340738 74.04374695 133.49479675 C75.71791183 136.5166749 77.3906242 139.53935487 79.0625 142.5625 C79.39275177 143.15960785 79.72300354 143.7567157 80.06326294 144.37191772 C85.01532018 153.33237279 89.87460955 162.33914617 94.6875 171.375 C99.67963904 180.74636767 104.8010999 190.02706871 110.0690918 199.24584961 C115.18684914 208.23990862 120.05569839 217.36236942 124.88867188 226.51171875 C127.77035331 231.9434223 130.64582697 237.26107318 134.15234375 242.31860352 C135 244 135 244 135 248 C134.26909653 248.00142502 133.53819305 248.00285004 132.78514099 248.00431824 C125.82880407 248.02229745 118.87296337 248.06434579 111.91694546 248.13209057 C108.34241619 248.16609004 104.76830198 248.19142762 101.19360352 248.19555664 C81.28286323 247.8843142 81.28286323 247.8843142 62.16821289 252.71899414 C56.34396575 255.07391629 50.15785984 255.99447687 44 257.125 C43.3269281 257.24973694 42.6538562 257.37447388 41.96038818 257.50299072 C38.54624974 258.13423581 35.13001026 258.75120699 31.70996094 259.34960938 C29.47185959 259.74196934 27.23505361 260.14197963 25.00097656 260.55664062 C-3.40406361 265.75129642 -34.58932927 264.56441027 -63 260 C-64.07701172 259.82839355 -65.15402344 259.65678711 -66.26367188 259.47998047 C-119.16074886 250.75991135 -170.17356831 227.94608145 -211 193 C-212.3346119 191.8749721 -213.6692492 190.74997433 -215.00390625 189.625 C-216.39921766 188.43841678 -217.79375265 187.25091995 -219.1875 186.0625 C-220.19707764 185.20990601 -220.19707764 185.20990601 -221.22705078 184.34008789 C-222.8565863 182.93695912 -224.43365521 181.47333647 -226 180 C-226 179.34 -226 178.68 -226 178 C-220.75318022 177.82578246 -215.50807545 177.69939031 -210.2590332 177.61547852 C-208.47715904 177.58047021 -206.69548312 177.53284542 -204.91430664 177.47192383 C-188.20310509 176.91503977 -188.20310509 176.91503977 -182.91015625 181.109375 C-181.59803247 182.39740818 -180.29458938 183.69434436 -179 185 C-177.40119658 186.14923824 -175.77162194 187.25661977 -174.1171875 188.32421875 C-173.2718042 188.87198975 -172.4264209 189.41976074 -171.55541992 189.98413086 C-154.22612522 200.99665378 -136.32027551 210.93529685 -117 218 C-116.06865234 218.34627441 -115.13730469 218.69254883 -114.17773438 219.04931641 C-57.60477013 239.81854437 1.35767595 240.91540811 59.50830078 225.56835938 C62 225 62 225 65 225 C63.63016347 220.54319605 61.86859089 216.54478373 59.7265625 212.40625 C59.40697571 211.78658859 59.08738892 211.16692719 58.75811768 210.52848816 C57.71843923 208.51652015 56.67207414 206.50812777 55.625 204.5 C54.89591824 203.09484834 54.16691508 201.68965589 53.43798828 200.28442383 C47.93819635 189.70464873 42.27285997 179.22186034 36.52148438 168.77685547 C33.69412568 163.61665364 30.91136216 158.43241827 28.125 153.25 C27.54250488 152.1674292 26.96000977 151.0848584 26.35986328 149.96948242 C23.3542379 144.38222918 20.35205854 138.7931342 17.3515625 133.203125 C9.78865532 119.11942282 9.78865532 119.11942282 2.0625 105.125 C-2.81789902 96.40557071 -7.52772895 87.59576492 -12.23071289 78.77978516 C-15.39989929 72.84121756 -18.5850781 66.91285392 -21.81640625 61.0078125 C-22.41606201 59.91033691 -23.01571777 58.81286133 -23.63354492 57.68212891 C-24.76927633 55.60682774 -25.90859537 53.53348471 -27.05200195 51.46240234 C-27.55820068 50.53637207 -28.06439941 49.6103418 -28.5859375 48.65625 C-29.0298584 47.84994141 -29.4737793 47.04363281 -29.93115234 46.21289062 C-31.78407222 42.37669469 -31.78407222 42.37669469 -32 40 C-30.92358398 38.11230469 -30.92358398 38.11230469 -29.24609375 36.171875 C-28.63830078 35.45386719 -28.03050781 34.73585938 -27.40429688 33.99609375 C-26.75525391 33.25488281 -26.10621094 32.51367188 -25.4375 31.75 C-24.18448096 30.28792804 -22.93316755 28.82439256 -21.68359375 27.359375 C-20.75172241 26.27088257 -20.75172241 26.27088257 -19.80102539 25.16040039 C-17.5772106 22.49284758 -15.50181313 19.73560182 -13.44018555 16.94189453 C-11.08519894 13.76651506 -8.63438474 10.66725772 -6.1875 7.5625 C-5.45370117 6.62760742 -5.45370117 6.62760742 -4.70507812 5.67382812 C-1.13157685 1.13157685 -1.13157685 1.13157685 0 0 Z " fill="#70B130" transform="translate(643,564)"/>
<path d="M0 0 C4.39197728 0.5992053 8.18410299 1.71552726 12.3125 3.3125 C32.91899066 10.80970901 53.76259213 12.27621324 75.5 12.625 C77.4987128 12.66329325 79.49741111 12.70235099 81.49609375 12.7421875 C86.33060781 12.83691466 91.16519829 12.92138014 96 13 C93.01717157 16.63510069 90.32661668 19.76766359 86.5625 22.625 C82.28934267 25.95068643 78.15732074 29.39744707 74.0625 32.9375 C69.04986334 37.2628932 63.97438565 41.49295805 58.83203125 45.6640625 C55.5732823 48.35196853 52.38112263 51.11041738 49.1875 53.875 C44.57515192 57.86237208 39.88499362 61.70737941 35.0625 65.4375 C29.33551803 69.87014859 23.8473728 74.53035124 18.39916992 79.30004883 C13.92220304 83.21644597 9.36448107 87.01334323 4.7421875 90.7578125 C1.62999852 93.30253683 -1.43726497 95.89618225 -4.5 98.5 C-8.46899152 101.87288602 -12.4601718 105.21176774 -16.5 108.5 C-22.73916756 113.58175677 -28.86891962 118.78894106 -35 124 C-41.10888035 129.19219022 -47.21510641 134.38123581 -53.4375 139.4375 C-57.68392382 142.89274151 -61.85296294 146.42697834 -66 150 C-71.01734844 154.3228682 -76.09493761 158.55670367 -81.234375 162.734375 C-88.36254456 168.57383594 -95.35308027 174.57989248 -102.33862305 180.58862305 C-107.88619219 185.35982062 -113.48417313 190.05019343 -119.1640625 194.6640625 C-123.64980066 198.35892671 -128.04354834 202.15960822 -132.44921875 205.94921875 C-140.6041006 212.96299661 -148.82515524 219.88711449 -157.171875 226.671875 C-160.39739684 229.32713883 -163.57296962 232.03714761 -166.75 234.75 C-171.0257664 238.3957062 -175.33910724 241.85660721 -180 245 C-178.34234094 241.34080579 -176.09575526 238.17680987 -173.75 234.9375 C-173.09898315 234.03209473 -173.09898315 234.03209473 -172.43481445 233.10839844 C-168.13086446 227.14157574 -163.75730264 221.22578936 -159.38354492 215.31005859 C-155.40345138 209.9221684 -151.47005828 204.50315289 -147.5625 199.0625 C-142.35375478 191.81876562 -137.03021228 184.6672475 -131.66308594 177.5402832 C-127.34407357 171.80253196 -123.06459696 166.03749458 -118.8125 160.25 C-113.95474831 153.63830627 -109.05592655 147.05969693 -104.12304688 140.50390625 C-100.66804153 135.90655771 -97.27299503 131.26900745 -93.90234375 126.609375 C-91.91772397 123.88714499 -89.90106808 121.19151062 -87.875 118.5 C-82.14074572 110.87727776 -76.49604245 103.18895614 -70.84375 95.50537109 C-69.02207994 93.03000322 -67.19885832 90.55578714 -65.375 88.08203125 C-58.03576049 78.12779714 -58.03576049 78.12779714 -50.72241211 68.15454102 C-45.09382753 60.45972844 -39.38944326 52.82413871 -33.65820312 45.20556641 C-29.96357438 40.29136204 -26.27748773 35.37074073 -22.58935547 30.45166016 C-19.58017214 26.43863995 -16.569675 22.42663065 -13.5546875 18.41796875 C-13.01650391 17.70189453 -12.47832031 16.98582031 -11.92382812 16.24804688 C-10.931019 14.92722263 -9.93758587 13.60686705 -8.94335938 12.28710938 C-5.89873211 8.23490762 -2.93252746 4.13412264 0 0 Z " fill="#70B130" transform="translate(482,554)"/>
<path d="M0 0 C0 4.09472487 -1.56764356 5.12978236 -4.25 8.1875 C-8.31205702 12.91218281 -12.15675249 17.75029157 -15.875 22.75 C-16.37821777 23.42587158 -16.88143555 24.10174316 -17.39990234 24.7980957 C-18.42642711 26.17945445 -19.45197824 27.56153726 -20.4765625 28.94433594 C-27.79202095 38.81551545 -35.21365905 48.59322927 -42.77758789 58.27539062 C-48.1725591 65.19312995 -53.44267246 72.19968664 -58.68310547 79.23486328 C-60.57217886 81.76693607 -62.47449875 84.28899834 -64.375 86.8125 C-66.97073028 90.2703669 -69.54773284 93.74049754 -72.10546875 97.2265625 C-78.98872804 106.60805051 -85.95829481 115.91329522 -93.03076172 125.15307617 C-97.4785069 130.97427904 -101.85726489 136.84095136 -106.1875 142.75 C-111.06307964 149.40225649 -116.01600675 155.98654011 -121.04248047 162.52539062 C-125.17312944 167.90356772 -129.25130653 173.31922372 -133.3125 178.75 C-138.52330369 185.71795084 -143.77696488 192.65108762 -149.0625 199.5625 C-154.68952683 206.92420477 -160.22435448 214.34616796 -165.70019531 221.82080078 C-171.4775648 229.68873063 -177.40341753 237.4411017 -183.33203125 245.1953125 C-187.59265849 250.76867354 -191.80758853 256.37518127 -196 262 C-199.91465158 260.58360788 -203.14461774 258.71030899 -206.625 256.4375 C-219.85723302 248.09548214 -233.95436515 242.16262564 -249 238 C-250.31805802 237.62492458 -251.63577787 237.24865839 -252.953125 236.87109375 C-253.95859375 236.58363281 -254.9640625 236.29617188 -256 236 C-254.90643039 232.71929116 -254.24643942 232.14226768 -251.65625 230.03125 C-248.10028652 227.01406886 -244.75113232 223.84088355 -241.46875 220.53125 C-240.74196045 219.79950562 -240.74196045 219.79950562 -240.00048828 219.05297852 C-238.49833277 217.53727454 -236.99872816 216.01909263 -235.5 214.5 C-229.74635479 208.66817521 -224.01739796 202.88678718 -217.78320312 197.56054688 C-214.87699409 195.01721608 -212.19755485 192.26083083 -209.5 189.5 C-205.51478981 185.4646327 -201.48480851 181.60576993 -197.15625 177.9375 C-193.59504577 174.73757736 -190.26312939 171.30448674 -186.91796875 167.88085938 C-183.43973526 164.34652534 -179.81769272 161.0545296 -176.06640625 157.8125 C-172.53954451 154.71899556 -169.15222445 151.47918332 -165.75 148.25 C-158.89108937 141.76737009 -151.97320391 135.35933177 -145 129 C-143.959149 128.0434978 -142.91879573 127.08645372 -141.87890625 126.12890625 C-136.96420311 121.60511938 -132.0298577 117.11268643 -126.984375 112.734375 C-122.94626738 109.20500535 -118.98025811 105.59429369 -115 102 C-105.5078125 93.42826705 -105.5078125 93.42826705 -101.125 89.625 C-97.69667808 86.64083314 -94.34379199 83.57811516 -91 80.5 C-87.04135351 76.85588284 -83.04823312 73.26086345 -78.984375 69.734375 C-74.10638374 65.47093382 -69.31138948 61.11055785 -64.52734375 56.7421875 C-60.3591149 52.95048646 -56.14549798 49.2766953 -51.75 45.75 C-46.67657078 41.6511278 -41.93930819 37.26760012 -37.19458008 32.80004883 C-32.88172304 28.76098652 -28.40188619 25.01074735 -23.7890625 21.31640625 C-19.38098193 17.65535334 -15.22691775 13.72885073 -11.0390625 9.8203125 C-7.43501637 6.45969163 -3.73968923 3.20867595 0 0 Z " fill="#6FB230" transform="translate(985,228)"/>
<path d="M0 0 C2.58070542 0.02054846 5.16145412 0.03619135 7.74221802 0.04716492 C13.80614008 0.08466255 19.86749741 0.17105507 25.9304601 0.2820093 C32.84206561 0.40570117 39.75378729 0.46562392 46.6662271 0.52065909 C60.86460931 0.63510782 75.06113146 0.82811932 89.2578125 1.07421875 C89.70747879 1.94849518 90.15714508 2.82277161 90.62043762 3.72354126 C92.32115298 7.02937192 94.02354541 10.33433669 95.72639465 13.6390686 C96.4571645 15.05782625 97.18750513 16.47680508 97.91737366 17.89602661 C104.61537955 30.91898344 111.4407772 43.87616093 118.69775391 56.59863281 C119.15714355 57.4078418 119.6165332 58.21705078 120.08984375 59.05078125 C120.50596924 59.77604004 120.92209473 60.50129883 121.35083008 61.24853516 C122.2578125 63.07421875 122.2578125 63.07421875 122.2578125 65.07421875 C48.0078125 65.07421875 -26.2421875 65.07421875 -102.7421875 65.07421875 C-102.7421875 64.41421875 -102.7421875 63.75421875 -102.7421875 63.07421875 C-101.23431589 61.69930576 -99.65678989 60.40057413 -98.0546875 59.13671875 C-97.04664063 58.33105469 -96.03859375 57.52539062 -95 56.6953125 C-94.46407227 56.26718262 -93.92814453 55.83905273 -93.37597656 55.39794922 C-90.68343807 53.21639756 -88.0613055 50.95351508 -85.4296875 48.69921875 C-80.97215115 44.8974367 -76.43302072 41.22821236 -71.8046875 37.63671875 C-66.29815427 33.36238454 -60.98275429 28.90597529 -55.71118164 24.34619141 C-51.70331636 20.88380195 -47.67477688 17.47025715 -43.44534302 14.27827454 C-40.65210453 12.09643615 -40.65210453 12.09643615 -38.13156128 9.32121277 C-27.17538059 -1.69942098 -14.67324839 -0.34482034 0 0 Z " fill="#FAF9FA" transform="translate(531.7421875,657.92578125)"/>
<path d="M0 0 C3 1 3 1 4.11914062 3.09790039 C4.46138672 4.00531982 4.80363281 4.91273926 5.15625 5.84765625 C5.53910156 6.84603516 5.92195312 7.84441406 6.31640625 8.87304688 C6.70699219 9.92556641 7.09757813 10.97808594 7.5 12.0625 C7.89058594 13.08794922 8.28117188 14.11339844 8.68359375 15.16992188 C9.80058832 18.10908436 10.90061015 21.05421905 12 24 C12.27408691 24.71333496 12.54817383 25.42666992 12.83056641 26.16162109 C19.39565633 43.27418881 23.69596377 61.00227648 27 79 C27.16806152 79.89283691 27.33612305 80.78567383 27.50927734 81.70556641 C30.29470762 97.30560011 31.33457921 112.82184558 31.26074219 128.65136719 C31.25003248 131.36676483 31.26071223 134.08149725 31.2734375 136.796875 C31.28802078 153.83292256 29.80290678 170.6310082 27 187.4375 C26.835 188.48486328 26.67 189.53222656 26.5 190.61132812 C25.688537 195.5973879 24.73213127 200.23999584 23 205 C22.47931497 206.90110582 21.95955434 208.80250174 21.45336914 210.70751953 C18.17722284 222.98511635 14.14126543 234.99140035 10 247 C9.74105957 247.76618652 9.48211914 248.53237305 9.21533203 249.32177734 C5.57123156 260.05899308 0.63263382 269.85174116 -4.80664062 279.78808594 C-5.86064663 281.74170591 -6.8715521 283.70767327 -7.859375 285.6953125 C-24.04643442 317.71131056 -48.66138831 348.67555849 -76 372 C-77.42119141 373.25296875 -77.42119141 373.25296875 -78.87109375 374.53125 C-85.09590327 379.97239958 -91.56360382 385.01241801 -98.25 389.875 C-98.9821875 390.4102832 -99.714375 390.94556641 -100.46875 391.49707031 C-105.44800075 395.06807074 -110.58454422 398.13627133 -116 401 C-118.03736586 397.57204403 -120.05196199 394.13124835 -122.0625 390.6875 C-122.64322266 389.71103516 -123.22394531 388.73457031 -123.82226562 387.72851562 C-124.36689453 386.79072266 -124.91152344 385.85292969 -125.47265625 384.88671875 C-125.98062744 384.02264404 -126.48859863 383.15856934 -127.01196289 382.26831055 C-128 380 -128 380 -127 377 C-124.77875465 375.38157925 -122.57113802 373.89832422 -120.25 372.4375 C-109.58217377 365.51590037 -99.79520198 357.9638427 -90.47265625 349.28515625 C-88.40139901 347.37096117 -86.29085299 345.55412389 -84.125 343.75 C-73.45163119 334.42990086 -64.50522104 323.27328388 -56 312 C-55.32372559 311.11707275 -55.32372559 311.11707275 -54.63378906 310.21630859 C-23.60183592 269.65893335 -3.73680793 220.57666991 3 170 C3.10296387 169.27151855 3.20592773 168.54303711 3.31201172 167.79248047 C8.8361738 127.30813939 4.97971186 84.68677567 -8 46 C-8.61375375 44.14729188 -9.22700474 42.29441715 -9.83984375 40.44140625 C-11.32462502 35.96246118 -12.81987959 31.48714439 -14.32324219 27.0144043 C-14.88452164 25.34372727 -15.44266739 23.67199782 -16 22 C-14.96777344 20.07055664 -14.96777344 20.07055664 -13.359375 17.91015625 C-12.78316406 17.12576172 -12.20695313 16.34136719 -11.61328125 15.53320312 C-10.99839844 14.71787109 -10.38351562 13.90253906 -9.75 13.0625 C-8.85087891 11.84530273 -8.85087891 11.84530273 -7.93359375 10.60351562 C-6.29909699 8.3945893 -4.65260132 6.19539807 -3 4 C-1.99988498 2.66675294 -0.99984998 1.33344584 0 0 Z " fill="#6FB130" transform="translate(902,379)"/>
<path d="M0 0 C5.61 0 11.22 0 17 0 C17 35.31 17 70.62 17 107 C-6.0175 107.12375 -6.0175 107.12375 -29.5 107.25 C-36.75194336 107.30462402 -36.75194336 107.30462402 -44.15039062 107.36035156 C-50.08105469 107.37841797 -50.08105469 107.37841797 -52.8626709 107.3817749 C-54.79402356 107.38789345 -56.72536149 107.40191246 -58.65661621 107.42230225 C-61.59230857 107.45173141 -64.52707209 107.45561916 -67.46289062 107.45410156 C-68.31473183 107.468494 -69.16657303 107.48288643 -70.0442276 107.497715 C-76.90114737 107.45050541 -82.06577343 105.53158828 -87.27734375 101.03515625 C-87.82519531 100.38417969 -88.37304688 99.73320313 -88.9375 99.0625 C-89.50339844 98.41410156 -90.06929687 97.76570312 -90.65234375 97.09765625 C-92.17642242 94.72539467 -92.61882257 92.77439271 -93 90 C-93.66 90 -94.32 90 -95 90 C-95.12452146 84.48657268 -95.21476997 78.97398153 -95.2746582 73.45947266 C-95.29964898 71.58758263 -95.33365373 69.71578865 -95.37719727 67.84423828 C-95.86585701 46.28572029 -95.86585701 46.28572029 -88.2434082 38.11767578 C-82.45566767 32.55606661 -76.14004645 30.53494371 -68.22875977 30.65942383 C-67.48646622 30.65898575 -66.74417267 30.65854767 -65.97938538 30.65809631 C-63.54978219 30.66017 -61.12088741 30.68343258 -58.69140625 30.70703125 C-56.99747596 30.71263228 -55.30354078 30.71689998 -53.60960388 30.71989441 C-49.16914253 30.73130328 -44.72897944 30.76073599 -40.28863525 30.79400635 C-35.75040724 30.82479294 -31.21213065 30.83841804 -26.67382812 30.85351562 C-17.78240052 30.88560989 -8.89127182 30.93834508 0 31 C0 20.77 0 10.54 0 0 Z " fill="#F4F4F4" transform="translate(861,880)"/>
<path d="M0 0 C11.26636574 -0.13952972 22.53252312 -0.24588876 33.79957962 -0.31087303 C39.03238882 -0.34207556 44.2646033 -0.38434435 49.49707031 -0.45263672 C54.55459112 -0.51822643 59.6115429 -0.55378919 64.66945648 -0.56926346 C66.59106137 -0.58027912 68.51263804 -0.60178921 70.43399811 -0.63438034 C91.00493376 -0.96917518 91.00493376 -0.96917518 100 6 C104.7255953 11.18492442 107.38615961 16.01654065 107.34057617 23.09716797 C107.34034958 24.27793915 107.34012299 25.45871033 107.33988953 26.67526245 C107.32440567 27.93484772 107.30892181 29.19443298 107.29296875 30.4921875 C107.28872391 31.79326447 107.28447906 33.09434143 107.28010559 34.43484497 C107.26870479 37.87745763 107.23927974 41.31968467 107.20599365 44.762146 C107.17518917 48.28148178 107.1615782 51.80088047 107.14648438 55.3203125 C107.11440462 62.21369909 107.06326684 69.10683098 107 76 C94.62138482 76.09279227 82.24285277 76.16381208 69.86396027 76.20724869 C64.11556183 76.22809899 58.36740184 76.25637035 52.61914062 76.30175781 C47.06890019 76.34530612 41.51888873 76.36915634 35.9684906 76.37950897 C33.8538401 76.38688416 31.73920174 76.40128621 29.62464905 76.42292023 C26.65639431 76.45207321 23.68907862 76.45595098 20.72070312 76.45410156 C19.85179443 76.46848267 18.98288574 76.48286377 18.08764648 76.49768066 C11.68898048 76.45470807 6.22697083 75.05695429 1.47205353 70.55255508 C-3.6796583 64.61491695 -4.36345126 60.20097425 -4.375 52.625 C-4.39949219 51.78710938 -4.42398437 50.94921875 -4.44921875 50.0859375 C-4.48022081 43.51350119 -2.82630504 39.95646383 1.78125 35.13671875 C2.3484375 34.65847656 2.915625 34.18023438 3.5 33.6875 C4.35078125 32.95080078 4.35078125 32.95080078 5.21875 32.19921875 C9.33951316 29.42493303 14.00040289 29.86296545 18.79785156 29.88647461 C19.57872131 29.88632858 20.35959106 29.88618256 21.16412354 29.8860321 C23.73965249 29.88672758 26.31510871 29.89450288 28.890625 29.90234375 C30.67852743 29.90420923 32.46643037 29.90563252 34.2543335 29.90663147 C38.95610978 29.91044643 43.65785508 29.92026802 48.35961914 29.93133545 C53.15901266 29.94157151 57.9584112 29.9461338 62.7578125 29.95117188 C72.1718886 29.96189119 81.58594172 29.97895537 91 30 C90.77211278 28.03897046 90.51694943 26.08109495 90.25 24.125 C90.11078125 23.03445313 89.9715625 21.94390625 89.828125 20.8203125 C89.27180304 17.99056078 89.27180304 17.99056078 87.43792725 16.63711548 C83.8836315 15.70825395 80.39128553 15.69125012 76.74316406 15.68115234 C75.91352646 15.67110672 75.08388885 15.6610611 74.22911072 15.65071106 C71.49128909 15.61986018 68.75356533 15.60283864 66.015625 15.5859375 C64.11561235 15.56722738 62.21560803 15.54765409 60.31561279 15.5272522 C55.31798202 15.47590849 50.3203243 15.4362947 45.3225708 15.39910889 C40.22148968 15.35908332 35.12052088 15.30798436 30.01953125 15.2578125 C20.0130997 15.16102668 10.00660477 15.07663033 0 15 C0 10.05 0 5.1 0 0 Z " fill="#F5F5F5" transform="translate(482,911)"/>
<path d="M0 0 C11.31826779 -0.09287324 22.63644422 -0.1638529 33.95501614 -0.20724869 C39.2112777 -0.22808149 44.46727765 -0.25632035 49.72338867 -0.30175781 C54.80031451 -0.34536926 59.87698944 -0.36916948 64.95408821 -0.37950897 C66.88649505 -0.38687292 68.81888889 -0.40125287 70.75118828 -0.42292023 C73.46780442 -0.45215784 76.18339714 -0.45594756 78.90014648 -0.45410156 C80.08590775 -0.47567322 80.08590775 -0.47567322 81.29562378 -0.49768066 C88.10316222 -0.4479577 93.82985001 1.64656662 99.3046875 5.7109375 C99.82289063 6.26007812 100.34109375 6.80921875 100.875 7.375 C101.40867187 7.91898438 101.94234375 8.46296875 102.4921875 9.0234375 C105.93082053 13.53107562 107.37697185 17.44370554 107.34057617 23.09716797 C107.34034958 24.27793915 107.34012299 25.45871033 107.33988953 26.67526245 C107.32440567 27.93484772 107.30892181 29.19443298 107.29296875 30.4921875 C107.28872391 31.79326447 107.28447906 33.09434143 107.28010559 34.43484497 C107.26870479 37.87745763 107.23927974 41.31968467 107.20599365 44.762146 C107.17518917 48.28148178 107.1615782 51.80088047 107.14648438 55.3203125 C107.11440462 62.21369909 107.06326684 69.10683098 107 76 C94.62138482 76.09279227 82.24285277 76.16381208 69.86396027 76.20724869 C64.11556183 76.22809899 58.36740184 76.25637035 52.61914062 76.30175781 C47.06890019 76.34530612 41.51888873 76.36915634 35.9684906 76.37950897 C33.8538401 76.38688416 31.73920174 76.40128621 29.62464905 76.42292023 C26.65639431 76.45207321 23.68907862 76.45595098 20.72070312 76.45410156 C19.85179443 76.46848267 18.98288574 76.48286377 18.08764648 76.49768066 C11.68898048 76.45470807 6.22697083 75.05695429 1.47205353 70.55255508 C-3.56415751 64.74803812 -4.34254767 60.56480303 -4.3125 53.125 C-4.32861328 52.33480469 -4.34472656 51.54460938 -4.36132812 50.73046875 C-4.36634562 44.69943714 -3.25983406 40.56821227 0.83203125 35.91796875 C1.48558594 35.34691406 2.13914062 34.77585937 2.8125 34.1875 C3.78123047 33.31158203 3.78123047 33.31158203 4.76953125 32.41796875 C9.53698974 29.38716764 15.35652302 29.85861404 20.84130859 29.88647461 C21.98379059 29.88625557 21.98379059 29.88625557 23.14935303 29.8860321 C25.64907754 29.88672482 28.14872612 29.89448701 30.6484375 29.90234375 C32.38864094 29.90421021 34.12884491 29.90563304 35.86904907 29.90663147 C40.43598903 29.91043869 45.00289689 29.92025358 49.56982422 29.93133545 C54.23534715 29.94158823 58.90087529 29.94613736 63.56640625 29.95117188 C72.71095156 29.96187753 81.8554731 29.9789323 91 30 C90.96652475 28.60316918 90.89668216 27.20719363 90.8125 25.8125 C90.77769531 25.03519531 90.74289062 24.25789062 90.70703125 23.45703125 C89.64825161 19.77762576 88.04278802 18.29351336 85 16 C82.01930449 15.50228082 79.60605948 15.30752734 76.62963867 15.34057617 C75.79985504 15.33009247 74.97007141 15.31960876 74.11514282 15.30880737 C71.38236957 15.28008953 68.65086567 15.28634486 65.91796875 15.29296875 C64.01937779 15.2798517 62.12080079 15.26454746 60.22224426 15.24714661 C55.23272342 15.20728447 50.24356754 15.19710537 45.25390625 15.19311523 C40.1593925 15.18378611 35.06509339 15.14637393 29.97070312 15.11132812 C19.98047879 15.04673988 9.99041485 15.01350991 0 15 C0 10.05 0 5.1 0 0 Z " fill="#F5F4F5" transform="translate(626,911)"/>
<path d="M0 0 C0.88898483 -0.00274933 1.77796967 -0.00549866 2.69389343 -0.0083313 C3.66133987 -0.00114075 4.62878632 0.0060498 5.62554932 0.01345825 C6.65025833 0.0131662 7.67496735 0.01287415 8.73072815 0.01257324 C12.11795518 0.01396665 15.50496227 0.02952857 18.89215088 0.04519653 C21.24055867 0.04892662 23.58896802 0.05177361 25.93737793 0.05377197 C32.11877742 0.06140875 38.30008295 0.08105773 44.48144531 0.10317993 C50.78890715 0.12363733 57.09638418 0.13277347 63.40386963 0.14285278 C75.780213 0.16430349 88.15648663 0.19844007 100.53277588 0.24050903 C100.53277588 4.86050903 100.53277588 9.48050903 100.53277588 14.24050903 C98.68901115 14.24264656 98.68901115 14.24264656 96.80799866 14.24482727 C85.22776824 14.26149211 73.64788945 14.30425028 62.06784534 14.3725996 C56.11429106 14.40689967 50.16099421 14.43198433 44.20733643 14.43606567 C38.46236379 14.44034206 32.71797219 14.4687507 26.97318077 14.51394081 C24.78076244 14.52693682 22.58827465 14.53121609 20.39582253 14.52666283 C17.32600685 14.52177198 14.25789927 14.54778321 11.18829346 14.58108521 C10.28054672 14.57245956 9.37279999 14.56383392 8.43754578 14.5549469 C3.94219193 14.63677175 2.11080949 14.78511453 -1.53025818 17.65367126 C-3.41855187 20.17550675 -4.10478546 21.19762426 -4.13128662 24.27175903 C-4.13773193 25.00007935 -4.14417725 25.72839966 -4.15081787 26.47879028 C-4.12181396 27.59834106 -4.12181396 27.59834106 -4.09222412 28.74050903 C-4.11156006 29.48687622 -4.130896 30.23324341 -4.15081787 31.00222778 C-4.14437256 31.7305481 -4.13792725 32.45886841 -4.13128662 33.20925903 C-4.12564697 33.86345825 -4.12000732 34.51765747 -4.11419678 35.19168091 C-3.05720634 38.53895023 -1.16173456 40.0441221 1.53277588 42.24050903 C4.38220446 42.7189168 6.62929182 42.8942136 9.46905518 42.8364563 C10.64574516 42.8425441 10.64574516 42.8425441 11.84620667 42.84875488 C13.544751 42.85426257 15.24336317 42.84829035 16.94183922 42.83209419 C19.63806573 42.80662174 22.33276696 42.81149036 25.02906799 42.82398987 C30.75963857 42.84472881 36.48973655 42.82508695 42.22027588 42.80300903 C48.84694251 42.7818478 55.4731147 42.77747916 62.0997715 42.80351067 C64.74216105 42.80684916 67.38358748 42.78572113 70.02586365 42.7631073 C79.60432856 42.74662811 88.07480203 42.93625323 95.93511963 49.13504028 C96.44172119 49.76796997 96.94832275 50.40089966 97.47027588 51.05300903 C97.99492432 51.67820435 98.51957275 52.30339966 99.06011963 52.94754028 C103.11143196 59.25555179 104.01372517 64.24614721 103.90777588 71.61550903 C103.91937744 72.41472778 103.930979 73.21394653 103.94293213 74.03738403 C103.90278771 82.30713463 101.99778402 89.57868151 96.28277588 95.73660278 C91.53061862 99.82048792 85.52460574 102.3683919 79.26173401 102.36076355 C77.95556122 102.36282555 77.95556122 102.36282555 76.6230011 102.3649292 C75.67066086 102.36133392 74.71832062 102.35773865 73.73712158 102.35403442 C72.73206573 102.35418045 71.72700989 102.35432648 70.6914978 102.35447693 C67.36382908 102.35377932 64.03621609 102.34599397 60.70855713 102.33816528 C58.40355968 102.33630057 56.09856183 102.33487692 53.79356384 102.33387756 C47.7223298 102.33005663 41.65111962 102.32022992 35.57989502 102.30917358 C29.38645755 102.29895038 23.19301623 102.29437799 16.99957275 102.28933716 C4.8439633 102.2786073 -7.31162843 102.26153593 -19.46722412 102.24050903 C-19.46722412 97.29050903 -19.46722412 92.34050903 -19.46722412 87.24050903 C-18.22329895 87.23020157 -16.97937378 87.2198941 -15.69775391 87.20927429 C-3.98489881 87.11159188 7.72790255 87.00886262 19.44067001 86.90116978 C25.46256427 86.84596439 31.48446341 86.7925481 37.50640869 86.74319458 C43.31600448 86.695516 49.12554107 86.64317176 54.93506622 86.58756828 C57.15345031 86.5671606 59.37185062 86.5484449 61.59026337 86.53143501 C64.69323091 86.50735603 67.79608672 86.477306 70.89898682 86.4458313 C71.81967957 86.44007584 72.74037231 86.43432037 73.68896484 86.4283905 C74.53587891 86.41860168 75.38279297 86.40881287 76.25537109 86.39872742 C76.98911831 86.39227487 77.72286552 86.38582232 78.4788475 86.37917423 C80.63517786 86.23359565 82.48637641 85.94073154 84.53277588 85.24050903 C86.93697047 81.18487087 86.93209065 76.83970798 86.97027588 72.24050903 C87.01958252 71.19250122 87.01958252 71.19250122 87.06988525 70.12332153 C87.10814141 66.43681883 86.73333873 64.50797099 84.50733948 61.53947449 C80.7687174 58.64998744 77.91686502 58.55498046 73.38116455 58.64456177 C72.17039497 58.63847397 72.17039497 58.63847397 70.93516541 58.63226318 C69.18750685 58.62675507 67.43978237 58.63272889 65.69219017 58.64892387 C62.92091443 58.67437676 60.1511239 58.66953476 57.379776 58.6570282 C51.49311244 58.63628766 45.60690906 58.6559451 39.72027588 58.67800903 C32.90681728 58.69914682 26.09383856 58.7036001 19.28038979 58.6775074 C16.55925659 58.6741594 13.83905046 58.69532743 11.11802673 58.71791077 C9.43620608 58.71539768 7.75438656 58.71183583 6.0725708 58.70706177 C5.3237262 58.71994736 4.57488159 58.73283295 3.80334473 58.74610901 C-2.66331506 58.68525194 -7.76422567 56.56078204 -12.67425537 52.34597778 C-13.20406006 51.7130481 -13.73386475 51.08011841 -14.27972412 50.42800903 C-14.82241943 49.80281372 -15.36511475 49.17761841 -15.92425537 48.53347778 C-20.50417231 41.72737337 -21.01411505 35.919789 -21.02972412 27.86550903 C-21.0664624 26.87550903 -21.10320068 25.88550903 -21.14105225 24.86550903 C-21.185166 17.43479197 -19.32496029 12.85529499 -14.46722412 7.24050903 C-10.227649 2.98259495 -6.12249895 -0.01464713 0 0 Z " fill="#6FB131" transform="translate(346.46722412109375,884.7594909667969)"/>
<path d="M0 0 C1.06933022 -0.0010952 1.06933022 -0.0010952 2.16026306 -0.00221252 C4.49842503 0.00124948 6.83455281 0.04003918 9.17236328 0.0793457 C10.80045483 0.0886789 12.42856049 0.09579262 14.05667114 0.1007843 C18.3280764 0.11981456 22.59862257 0.16887989 26.86968994 0.2243042 C32.00159961 0.28460936 37.13379761 0.30743196 42.26596069 0.33657074 C50.05046199 0.38494862 57.83308083 0.48078839 65.61767578 0.56762695 C65.61767578 15.74762695 65.61767578 30.92762695 65.61767578 46.56762695 C47.3503414 46.768171 47.3503414 46.768171 39.55712891 46.81176758 C34.24152643 46.84164498 28.92635501 46.87696969 23.61108398 46.94482422 C19.32518482 46.99919475 15.03974795 47.02905797 10.7535305 47.04201317 C9.11922109 47.05124411 7.48493668 47.0692705 5.85082436 47.09627724 C3.55941955 47.1326371 1.26991886 47.13756978 -1.02172852 47.13525391 C-2.97697701 47.15190849 -2.97697701 47.15190849 -4.97172546 47.16889954 C-9.28078862 46.40923189 -10.74174148 44.99502615 -13.38232422 41.56762695 C-13.89396675 38.6398633 -14.10890285 36.30240674 -14.08154297 33.38012695 C-14.08869827 32.60000244 -14.09585358 31.81987793 -14.10322571 31.01611328 C-14.11098543 29.37216327 -14.106027 27.72810981 -14.08911133 26.08422852 C-14.06987389 23.57410775 -14.10929108 21.06952012 -14.15380859 18.55981445 C-14.15409896 16.95824867 -14.15095868 15.35667783 -14.14404297 13.75512695 C-14.15932541 13.0091626 -14.17460785 12.26319824 -14.19035339 11.49462891 C-14.10032667 7.45264598 -13.62060922 5.81654926 -10.79618835 2.86604309 C-7.28675019 0.14298323 -4.45336105 -0.03852388 0 0 Z " fill="#050505" transform="translate(796.38232421875,925.432373046875)"/>
<path d="M0 0 C1.04980545 0.02157166 1.04980545 0.02157166 2.12081909 0.0435791 C2.86252853 0.042995 3.60423798 0.04241089 4.36842346 0.04180908 C6.81997486 0.0445958 9.27031022 0.0757136 11.72164917 0.10705566 C13.42129349 0.11451601 15.12094642 0.12020992 16.82060242 0.12420654 C21.29410551 0.13947924 25.76708912 0.17877481 30.24038696 0.22302246 C34.80503308 0.2639401 39.36976314 0.28221004 43.93453979 0.30236816 C52.89118497 0.34526792 61.84730823 0.41563081 70.80368042 0.49768066 C70.80368042 6.10768066 70.80368042 11.71768066 70.80368042 17.49768066 C61.093993 17.58803567 51.38458461 17.66142747 41.67457199 17.70492935 C37.16585425 17.72580768 32.65743894 17.75412956 28.14889526 17.79943848 C23.79817989 17.84288786 19.44775549 17.86681592 15.0968399 17.87718964 C13.43661162 17.88458268 11.77639933 17.89901964 10.11629486 17.92060089 C7.79136193 17.94962387 5.46763243 17.95363729 3.14254761 17.95178223 C2.45562332 17.96616333 1.76869904 17.98054443 1.06095886 17.99536133 C-2.29448725 17.96637672 -3.94214025 17.69553475 -6.62399292 15.60797119 C-8.43865704 13.17242863 -8.71099007 12.00218526 -8.63381958 8.99768066 C-8.63253052 8.24486816 -8.63124146 7.49205566 -8.62991333 6.71643066 C-7.60583613 1.47610767 -5.24486675 0.04481003 0 0 Z " fill="#070707" transform="translate(646.1963195800781,954.5023193359375)"/>
<path d="M0 0 C0.7321019 -0.00043808 1.4642038 -0.00087616 2.2184906 -0.00132751 C4.6319368 0.0007581 7.04468337 0.02407763 9.45800781 0.04760742 C11.13380555 0.0532042 12.8096082 0.05747391 14.4854126 0.06047058 C18.89139408 0.07191292 23.29707786 0.10137474 27.70294189 0.13458252 C32.20068332 0.16529663 36.69847295 0.17897878 41.19628906 0.1940918 C50.01805535 0.22624518 58.83952272 0.27900803 67.66113281 0.34057617 C67.66113281 5.95057617 67.66113281 11.56057617 67.66113281 17.34057617 C57.95144539 17.43093117 48.242037 17.50432298 38.53202438 17.54782486 C34.02330664 17.56870319 29.51489133 17.59702506 25.00634766 17.64233398 C20.65563229 17.68578337 16.30520788 17.70971143 11.9542923 17.72008514 C10.29406401 17.72747819 8.63385173 17.74191515 6.97374725 17.7634964 C4.64881432 17.79251938 2.32508483 17.7965328 0 17.79467773 C-0.68692429 17.80905884 -1.37384857 17.82343994 -2.08158875 17.83825684 C-5.42532054 17.80937342 -7.08507347 17.53664857 -9.76434326 15.46673584 C-11.67521157 12.88639326 -11.8773111 11.4641153 -11.83886719 8.27807617 C-11.84917969 7.42084961 -11.85949219 6.56362305 -11.87011719 5.68041992 C-11.33886719 3.34057617 -11.33886719 3.34057617 -9.76434326 1.71562195 C-6.51625251 -0.1257788 -3.63093187 -0.05701153 0 0 Z " fill="#070606" transform="translate(505.3388671875,954.659423828125)"/>
<path d="M0 0 C5.61 0 11.22 0 17 0 C17 25.08 17 50.16 17 76 C11.39 76 5.78 76 0 76 C0 50.92 0 25.84 0 0 Z " fill="#EEEEEE" transform="translate(911,911)"/>
<path d="M0 0 C0 2.97 0 5.94 0 9 C-13.98697576 9.10084453 -27.91374566 8.91580664 -41.88549805 8.25921631 C-46.990837 8.02000553 -52.09696899 7.79909963 -57.203125 7.578125 C-58.287146 7.53102386 -59.37116699 7.48392273 -60.48803711 7.43539429 C-74.82197455 6.8226037 -89.16102562 6.35168087 -103.5 5.875 C-104.84159372 5.83027007 -106.18318715 5.78553135 -107.52478027 5.74078369 C-115.0164369 5.49129443 -122.5081676 5.24415368 -130 5 C-130 4.67 -130 4.34 -130 4 C-36.13948255 -0.32460613 -36.13948255 -0.32460613 0 0 Z " fill="#66A92D" transform="translate(293,929)"/>
<path d="M0 0 C12.46965237 -0.05875693 24.92441799 0.11921561 37.390625 0.40234375 C39.31141976 0.44487675 41.23221652 0.48731966 43.15301514 0.52967834 C47.15330945 0.61836014 51.15356847 0.70846854 55.15380859 0.79956055 C60.21699677 0.91469525 65.28026555 1.02571207 70.34357071 1.13556576 C74.30420197 1.22206184 78.26477394 1.3110742 82.22533417 1.40075874 C84.08915138 1.44262748 85.95298666 1.48370182 87.81684113 1.5238781 C100.89057952 1.80730098 113.94071264 2.32325692 127 3 C127 3.33 127 3.66 127 4 C126.26608032 4.02283554 125.53216064 4.04567108 124.77600098 4.06919861 C117.83235036 4.2859108 110.88882203 4.50622064 103.94541168 4.73049068 C100.3764267 4.84564298 96.80740965 4.95944301 93.23828125 5.07006836 C89.78872368 5.17703881 86.33930062 5.28767147 82.88993835 5.40075874 C80.94481187 5.46359797 78.99956651 5.52272252 77.05432129 5.58177185 C70.96524688 5.78446009 65.03284029 6.16794171 59 7 C54.44146514 7.29231627 49.87798206 7.419111 45.3125 7.5625 C43.36512939 7.62618774 43.36512939 7.62618774 41.37841797 7.69116211 C27.58603876 8.1164543 13.79785348 8.10016311 0 8 C0 5.36 0 2.72 0 0 Z " fill="#71B334" transform="translate(961,931)"/>
<path d="M0 0 C5.61 0 11.22 0 17 0 C17 5.94 17 11.88 17 18 C11.39 18 5.78 18 0 18 C0 12.06 0 6.12 0 0 Z " fill="#69AC30" transform="translate(911,881)"/>
<path d="M0 0 C14.35331148 -0.17991616 28.66161788 0.37824568 43 1 C43 1.33 43 1.66 43 2 C37.06 2.33 31.12 2.66 25 3 C25 3.33 25 3.66 25 4 C38.86 4.495 38.86 4.495 53 5 C53 5.33 53 5.66 53 6 C35.3239549 6.67922258 17.69230939 7.15641531 0 7 C0 4.69 0 2.38 0 0 Z " fill="#78BE38" transform="translate(961,931)"/>
<path d="M0 0 C28.38 0 56.76 0 86 0 C85.67 0.99 85.34 1.98 85 3 C65.53 3 46.06 3 26 3 C26 2.34 26 1.68 26 1 C17.42 1 8.84 1 0 1 C0 0.67 0 0.34 0 0 Z " fill="#1D1E1D" transform="translate(695,376)"/>
<path d="M0 0 C7.59 0 15.18 0 23 0 C23 0.66 23 1.32 23 2 C23.92941406 1.98839844 24.85882812 1.97679687 25.81640625 1.96484375 C38.09490334 1.87521968 38.09490334 1.87521968 44 3 C44 3.33 44 3.66 44 4 C36.7841567 5.06668988 29.59811051 5.33367939 22.3125 5.5625 C20.36512939 5.62618774 20.36512939 5.62618774 18.37841797 5.69116211 C4.58603876 6.1164543 -9.20214652 6.10016311 -23 6 C-23 5.67 -23 5.34 -23 5 C-15.41 4.67 -7.82 4.34 0 4 C0 3.01 0 2.02 0 1 C0 0.67 0 0.34 0 0 Z " fill="#5C922C" transform="translate(984,933)"/>
<path d="M0 0 C11.22 0 22.44 0 34 0 C34 0.99 34 1.98 34 3 C9.66012524 3.70971639 -14.6492584 4.16137828 -39 4 C-39 3.67 -39 3.34 -39 3 C-37.76080811 2.96241577 -37.76080811 2.96241577 -36.49658203 2.92407227 C-33.38402127 2.82801633 -30.27157829 2.72884978 -27.15917969 2.62768555 C-25.1686935 2.56390016 -23.1780969 2.50359073 -21.1875 2.44335938 C-14.08718417 2.2102682 -7.05521792 1.84783288 0 1 C0 0.67 0 0.34 0 0 Z " fill="#2E4915" transform="translate(1067,933)"/>
<path d="M0 0 C0.98608749 0.00212242 0.98608749 0.00212242 1.99209595 0.00428772 C4.07029981 0.00983863 6.14839177 0.0223816 8.2265625 0.03515625 C9.64452968 0.04017761 11.06249857 0.0447394 12.48046875 0.04882812 C15.93753572 0.05979188 19.39453817 0.07702204 22.8515625 0.09765625 C22.1915625 1.08765625 21.5315625 2.07765625 20.8515625 3.09765625 C18.22694006 3.36463513 15.84090317 3.44598609 13.21875 3.390625 C12.09099655 3.38425774 12.09099655 3.38425774 10.94046021 3.37776184 C8.53546565 3.36094795 6.13130441 3.32329249 3.7265625 3.28515625 C2.09766834 3.27011284 0.46876106 3.25642383 -1.16015625 3.24414062 C-5.15657184 3.21103579 -9.15236332 3.15923634 -13.1484375 3.09765625 C-13.1484375 2.43765625 -13.1484375 1.77765625 -13.1484375 1.09765625 C-8.70696181 0.23849529 -4.52073926 -0.0193194 0 0 Z " fill="#29480F" transform="translate(168.1484375,931.90234375)"/>
<path d="M0 0 C0 0.33 0 0.66 0 1 C-3.3 1.33 -6.6 1.66 -10 2 C-10 2.66 -10 3.32 -10 4 C-20.89 3.34 -31.78 2.68 -43 2 C-43 1.67 -43 1.34 -43 1 C-28.65507373 0.05269355 -14.37370111 -0.11995 0 0 Z " fill="#4F8A20" transform="translate(255,930)"/>
<path d="M0 0 C0 4.13925061 -2.22659484 6.02207306 -4.8125 9 C-5.49022461 9.80050781 -5.49022461 9.80050781 -6.18164062 10.6171875 C-8.36233733 13.17672057 -10.56958429 15.67455241 -13 18 C-13.66 17.34 -14.32 16.68 -15 16 C-15.66 15.67 -16.32 15.34 -17 15 C-15.53626953 13.75283203 -15.53626953 13.75283203 -14.04296875 12.48046875 C-12.75775618 11.38287845 -11.47260303 10.28521855 -10.1875 9.1875 C-9.22360352 8.36668945 -9.22360352 8.36668945 -8.24023438 7.52929688 C-7.61826172 6.99755859 -6.99628906 6.46582031 -6.35546875 5.91796875 C-5.78465576 5.43094482 -5.21384277 4.9439209 -4.62573242 4.44213867 C-3.01956841 3.01735855 -1.50185891 1.53368638 0 0 Z " fill="#61A930" transform="translate(985,228)"/>
<path d="M0 0 C0 4.25128701 -1.94169362 5.44437775 -4.8125 8.5 C-6.15248047 9.93859375 -6.15248047 9.93859375 -7.51953125 11.40625 C-9.32570207 13.29490736 -11.13697327 15.16792056 -13 17 C-14.32 16.34 -15.64 15.68 -17 15 C-15.10600285 13.24797712 -13.20988262 11.49835022 -11.3125 9.75 C-10.51682617 9.01330078 -10.51682617 9.01330078 -9.70507812 8.26171875 C-6.56566972 5.37269261 -3.36822939 2.62459433 0 0 Z " fill="#292929" transform="translate(704,487)"/>
<path d="M0 0 C0.66 0.33 1.32 0.66 2 1 C1.67 14.86 1.34 28.72 1 43 C0.67 43 0.34 43 0 43 C-0.16759211 37.35849247 -0.32815426 31.71684548 -0.48217773 26.07495117 C-0.53557803 24.15529992 -0.59090586 22.23570129 -0.64819336 20.31616211 C-0.73015919 17.55854641 -0.80521256 14.80081636 -0.87890625 12.04296875 C-0.90594131 11.18350143 -0.93297638 10.32403412 -0.96083069 9.43852234 C-0.98092697 8.63791885 -1.00102325 7.83731537 -1.02172852 7.01245117 C-1.04171402 6.3085173 -1.06169952 5.60458344 -1.08229065 4.87931824 C-1 3 -1 3 0 0 Z " fill="#EEEEEF" transform="translate(768,925)"/>
<path d="M0 0 C0.33 0 0.66 0 1 0 C1 2.31 1 4.62 1 7 C1.66 7.33 2.32 7.66 3 8 C2.88660796 10.64680904 2.75987127 13.29177518 2.625 15.9375 C2.5940625 16.69224609 2.563125 17.44699219 2.53125 18.22460938 C2.4273685 20.15507395 2.22104386 22.07942081 2 24 C1.34 24.33 0.68 24.66 0 25 C0 16.75 0 8.5 0 0 Z " fill="#303030" transform="translate(822,590)"/>
<path d="M0 0 C0.33 0.99 0.66 1.98 1 3 C-2.25520833 6.25520833 -5.51041667 9.51041667 -8.765625 12.765625 C-9.32314453 13.32443359 -9.88066406 13.88324219 -10.45507812 14.45898438 C-11.74712257 15.74776196 -13.05175978 17.02389859 -14.359375 18.296875 C-16.08229043 19.91587816 -16.08229043 19.91587816 -17 22 C-18.32 21.34 -19.64 20.68 -21 20 C-20.29875 19.443125 -19.5975 18.88625 -18.875 18.3125 C-8.47537954 10.08761011 -8.47537954 10.08761011 0 0 Z " fill="#1D1D1D" transform="translate(796,679)"/>
<path d="M0 0 C0.33 0.66 0.66 1.32 1 2 C1.99 2 2.98 2 4 2 C4 2.66 4 3.32 4 4 C2.26303438 5.5830205 0.45943503 7.09353724 -1.375 8.5625 C-2.37273437 9.36816406 -3.37046875 10.17382812 -4.3984375 11.00390625 C-7 13 -7 13 -9 14 C-7.45158425 10.65291949 -5.50894136 7.75332488 -3.375 4.75 C-2.74335938 3.85796875 -2.11171875 2.9659375 -1.4609375 2.046875 C-0.73777344 1.03367187 -0.73777344 1.03367187 0 0 Z " fill="#63AD2F" transform="translate(311,785)"/>
<path d="M0 0 C0.33 0.66 0.66 1.32 1 2 C1.66 2 2.32 2 3 2 C3.99 6.29 4.98 10.58 6 15 C5.01 14.67 4.02 14.34 3 14 C2.05078125 11.85546875 2.05078125 11.85546875 1.3125 9.1875 C1.06113281 8.31480469 0.80976563 7.44210937 0.55078125 6.54296875 C0 4 0 4 0 0 Z " fill="#5E9B2A" transform="translate(349,580)"/>
<path d="M0 0 C1.32 0 2.64 0 4 0 C3.57405412 1.44096586 3.13373367 2.87768712 2.6875 4.3125 C2.44386719 5.11300781 2.20023437 5.91351562 1.94921875 6.73828125 C0.95817977 9.09964573 -0.08074943 10.33879993 -2 12 C-2.05395478 10.37536158 -2.09277195 8.75021459 -2.125 7.125 C-2.14820313 6.22007812 -2.17140625 5.31515625 -2.1953125 4.3828125 C-2 2 -2 2 0 0 Z " fill="#1B1B1B" transform="translate(496,956)"/>
<path d="M0 0 C0 3 0 3 -1.96875 5.04296875 C-2.8040625 5.75066406 -3.639375 6.45835937 -4.5 7.1875 C-5.3353125 7.90292969 -6.170625 8.61835938 -7.03125 9.35546875 C-7.6809375 9.89816406 -8.330625 10.44085938 -9 11 C-9.99 10.67 -10.98 10.34 -12 10 C-8.04 6.7 -4.08 3.4 0 0 Z " fill="#161616" transform="translate(811,351)"/>
<path d="M0 0 C0 3.80345877 -1.13786331 4.77701015 -3.5 7.6875 C-4.1496875 8.49574219 -4.799375 9.30398437 -5.46875 10.13671875 C-5.9740625 10.75160156 -6.479375 11.36648437 -7 12 C-8.32 11.34 -9.64 10.68 -11 10 C-5.555 5.05 -5.555 5.05 0 0 Z " fill="#549525" transform="translate(985,228)"/>
<path d="M0 0 C0.33 0.66 0.66 1.32 1 2 C-0.07192184 3.3218362 -1.15802695 4.63217927 -2.25 5.9375 C-2.85328125 6.66839844 -3.4565625 7.39929688 -4.078125 8.15234375 C-6.10741134 10.10326334 -7.254407 10.61731779 -10 11 C-6.79239749 7.19364503 -3.59253891 3.45436433 0 0 Z " fill="#60A22E" transform="translate(414,283)"/>
<path d="M0 0 C0.66 0.33 1.32 0.66 2 1 C1.67 1.99 1.34 2.98 1 4 C0.85596652 5.33363703 0.75409577 6.67218046 0.68359375 8.01171875 C0.64169922 8.76904297 0.59980469 9.52636719 0.55664062 10.30664062 C0.51732422 11.09232422 0.47800781 11.87800781 0.4375 12.6875 C0.39431641 13.48478516 0.35113281 14.28207031 0.30664062 15.10351562 C0.20072632 17.06881447 0.09987449 19.03438496 0 21 C-0.33 21 -0.66 21 -1 21 C-1.02895976 17.87501937 -1.04678483 14.7500731 -1.0625 11.625 C-1.07087891 10.73554687 -1.07925781 9.84609375 -1.08789062 8.9296875 C-1.09111328 8.07890625 -1.09433594 7.228125 -1.09765625 6.3515625 C-1.10289307 5.56604004 -1.10812988 4.78051758 -1.11352539 3.97119141 C-1 2 -1 2 0 0 Z " fill="#D8D7D8" transform="translate(479,952)"/>
<path d="M0 0 C0.33 0 0.66 0 1 0 C1 4.62 1 9.24 1 14 C0.67 12.68 0.34 11.36 0 10 C-0.66 10 -1.32 10 -2 10 C-2 7.69 -2 5.38 -2 3 C-1.34 3 -0.68 3 0 3 C0 2.01 0 1.02 0 0 Z " fill="#121213" transform="translate(481,912)"/>
<path d="M0 0 C0.33 0 0.66 0 1 0 C1.33 4.95 1.66 9.9 2 15 C1.01 15.66 0.02 16.32 -1 17 C-0.67 11.39 -0.34 5.78 0 0 Z " fill="#518426" transform="translate(907,528)"/>
<path d="M0 0 C0.33 0.66 0.66 1.32 1 2 C-2.33562767 6.51290803 -4.33289301 8.68206814 -10 10 C-6.66666667 6.66666667 -3.33333333 3.33333333 0 0 Z " fill="#63A72C" transform="translate(935,272)"/>
<path d="M0 0 C0.33 0 0.66 0 1 0 C1.33 2.64 1.66 5.28 2 8 C1.34 8 0.68 8 0 8 C0.33 9.98 0.66 11.96 1 14 C0.34 14 -0.32 14 -1 14 C-1.33 14.66 -1.66 15.32 -2 16 C-1.34 10.72 -0.68 5.44 0 0 Z " fill="#588E29" transform="translate(905,549)"/>
<path d="M0 0 C-0.66 1.65 -1.32 3.3 -2 5 C-5 5 -5 5 -8 4 C-3.375 0 -3.375 0 0 0 Z " fill="#181919" transform="translate(695,498)"/>
<path d="M0 0 C1.26823485 3.65393537 0.75715321 6.49070026 0.0625 10.25 C-0.13214844 11.32765625 -0.32679688 12.4053125 -0.52734375 13.515625 C-0.68332031 14.33546875 -0.83929688 15.1553125 -1 16 C-1.33 16 -1.66 16 -2 16 C-2.33 13.36 -2.66 10.72 -3 8 C-2.34 8 -1.68 8 -1 8 C-1.20625 7.236875 -1.4125 6.47375 -1.625 5.6875 C-2 3 -2 3 0 0 Z " fill="#528B27" transform="translate(347,455)"/>
<path d="M0 0 C0.33 0.99 0.66 1.98 1 3 C-1.31 4.98 -3.62 6.96 -6 9 C-6 6 -6 6 -4.6875 4.39453125 C-4.130625 3.87246094 -3.57375 3.35039062 -3 2.8125 C-2.443125 2.28269531 -1.88625 1.75289063 -1.3125 1.20703125 C-0.6628125 0.60955078 -0.6628125 0.60955078 0 0 Z " fill="#62A92B" transform="translate(802,392)"/>
<path d="M0 0 C0.66 0.33 1.32 0.66 2 1 C1.50628906 1.40992188 1.01257813 1.81984375 0.50390625 2.2421875 C-0.13675781 2.78101563 -0.77742187 3.31984375 -1.4375 3.875 C-2.07558594 4.40867187 -2.71367188 4.94234375 -3.37109375 5.4921875 C-5.10805004 6.9222757 -5.10805004 6.9222757 -6 9 C-6.99 8.67 -7.98 8.34 -9 8 C-6.03 5.36 -3.06 2.72 0 0 Z " fill="#66AB2E" transform="translate(855,344)"/>
<path d="M0 0 C0.66 1.32 1.32 2.64 2 4 C-0.64 5.98 -3.28 7.96 -6 10 C-4.21739173 6.43478346 -2.24007711 3.28544643 0 0 Z " fill="#539727" transform="translate(308,789)"/>
<path d="M0 0 C0 3 0 3 -1.3125 4.60546875 C-1.869375 5.12753906 -2.42625 5.64960938 -3 6.1875 C-3.556875 6.71730469 -4.11375 7.24710937 -4.6875 7.79296875 C-5.120625 8.19128906 -5.55375 8.58960938 -6 9 C-6.99 8.67 -7.98 8.34 -9 8 C-6.03 5.36 -3.06 2.72 0 0 Z " fill="#65AA2D" transform="translate(835,362)"/>
<path d="M0 0 C0.99 0.33 1.98 0.66 3 1 C3 2.65 3 4.3 3 6 C2.01 6.33 1.02 6.66 0 7 C0 7.99 0 8.98 0 10 C-0.66 9.67 -1.32 9.34 -2 9 C-1.34 6.03 -0.68 3.06 0 0 Z " fill="#E4E3E4" transform="translate(752,613)"/>
<path d="M0 0 C0.66 0 1.32 0 2 0 C1.88590407 1.45922693 1.75834456 2.91740598 1.625 4.375 C1.55539062 5.18710937 1.48578125 5.99921875 1.4140625 6.8359375 C1 9 1 9 -1 11 C-1.125 3.375 -1.125 3.375 0 0 Z " fill="#66A42C" transform="translate(900,577)"/>
<path d="M0 0 C1.51953125 1.14453125 1.51953125 1.14453125 3 3 C3.07421875 5.69921875 3.07421875 5.69921875 2.6875 8.6875 C2.50767578 10.17830078 2.50767578 10.17830078 2.32421875 11.69921875 C2.21722656 12.45847656 2.11023438 13.21773438 2 14 C1.67 14 1.34 14 1 14 C0.04738513 9.23692563 -0.08333357 4.8333472 0 0 Z " fill="#568D25" transform="translate(906,477)"/>
<path d="M0 0 C-1.49097658 3.7952131 -3.75700849 5.61042731 -7 8 C-7 5 -7 5 -4.625 2.3125 C-2 0 -2 0 0 0 Z " fill="#62A72C" transform="translate(819,378)"/>
<path d="M0 0 C-1.49097658 3.7952131 -3.75700849 5.61042731 -7 8 C-7 5 -7 5 -4.625 2.3125 C-2 0 -2 0 0 0 Z " fill="#66AC2D" transform="translate(873,329)"/>
<path d="M0 0 C0.66 0.66 1.32 1.32 2 2 C-1.465 4.97 -1.465 4.97 -5 8 C-5 5 -5 5 -2.5 2.3125 C-1.675 1.549375 -0.85 0.78625 0 0 Z " fill="#67AB2E" transform="translate(777,416)"/>
<path d="M0 0 C0.99 0.33 1.98 0.66 3 1 C2 4 2 4 -1 6 C-1.99 5.67 -2.98 5.34 -4 5 C-2.68 3.35 -1.36 1.7 0 0 Z " fill="#63A830" transform="translate(902,379)"/>
<path d="M0 0 C0.66 0 1.32 0 2 0 C1.67 2.97 1.34 5.94 1 9 C0.34 9 -0.32 9 -1 9 C-0.67 6.03 -0.34 3.06 0 0 Z " fill="#67A52F" transform="translate(902,567)"/>
<path d="M0 0 C1.5625 1.4375 1.5625 1.4375 3 4 C2.96846324 7.05380927 2.53266629 9.99653222 2 13 C1.67 13 1.34 13 1 13 C-0.10228696 8.59085217 -0.07654536 4.51617599 0 0 Z " fill="#4E8020" transform="translate(318,536)"/>
<path d="M0 0 C0.66 0 1.32 0 2 0 C1.67 2.97 1.34 5.94 1 9 C0.34 8.67 -0.32 8.34 -1 8 C-0.67 5.36 -0.34 2.72 0 0 Z " fill="#629F2D" transform="translate(324,444)"/>
</svg>
